<mxfile host="65bd71144e">
    <diagram id="1rMejdAB0dL0_DLzkRgZ" name="Page-1">
        <mxGraphModel dx="873" dy="2815" grid="1" gridSize="10" guides="1" tooltips="1" connect="1" arrows="1" fold="1" page="1" pageScale="1" pageWidth="850" pageHeight="1100" math="0" shadow="0">
            <root>
                <mxCell id="0"/>
                <mxCell id="1" parent="0"/>
                <mxCell id="2" value="&lt;h1&gt;HEADER&amp;nbsp;&lt;/h1&gt;" style="rounded=0;whiteSpace=wrap;html=1;fillColor=#f5f5f5;fontColor=#333333;strokeColor=#666666;" parent="1" vertex="1">
                    <mxGeometry width="840" height="60" as="geometry"/>
                </mxCell>
                <mxCell id="3" value="" style="rounded=0;whiteSpace=wrap;html=1;direction=south;fillColor=#f5f5f5;fontColor=#333333;strokeColor=#666666;" parent="1" vertex="1">
                    <mxGeometry y="50" width="190" height="640" as="geometry"/>
                </mxCell>
                <mxCell id="4" value="&lt;span style=&quot;white-space: pre; font-size: 22px;&quot;&gt;&#9;&lt;/span&gt;MIP" style="rounded=0;whiteSpace=wrap;html=1;fillColor=#008a00;strokeColor=#005700;fontFamily=Helvetica;fontSize=22;align=left;fontStyle=0;fontColor=#ffffff;" parent="1" vertex="1">
                    <mxGeometry x="20" y="120" width="120" height="60" as="geometry"/>
                </mxCell>
                <mxCell id="5" value="GE-GM" style="rounded=0;whiteSpace=wrap;html=1;fontFamily=Helvetica;fontSize=22;fontColor=#ffffff;fillColor=#d80073;strokeColor=#A50040;" parent="1" vertex="1">
                    <mxGeometry x="20" y="340" width="120" height="60" as="geometry"/>
                </mxCell>
                <mxCell id="6" value="BCG" style="rounded=0;whiteSpace=wrap;html=1;fontFamily=Helvetica;fontSize=22;fontColor=#050CE2;fillColor=#E2E2E2;" parent="1" vertex="1">
                    <mxGeometry x="20" y="580" width="120" height="60" as="geometry"/>
                </mxCell>
                <mxCell id="7" value="S1" style="rounded=0;whiteSpace=wrap;html=1;fontFamily=Helvetica;fontSize=22;fontColor=#FFFFFF;fillColor=#E2E2E2;" parent="1" vertex="1">
                    <mxGeometry x="20" y="190" width="120" height="20" as="geometry"/>
                </mxCell>
                <mxCell id="8" value="S2" style="rounded=0;whiteSpace=wrap;html=1;fontFamily=Helvetica;fontSize=22;fontColor=#141414;fillColor=#E2E2E2;" parent="1" vertex="1">
                    <mxGeometry x="20" y="270" width="120" height="20" as="geometry"/>
                </mxCell>
                <mxCell id="9" value="S3" style="rounded=0;whiteSpace=wrap;html=1;fontFamily=Helvetica;fontSize=22;fontColor=#191414;fillColor=#E2E2E2;" parent="1" vertex="1">
                    <mxGeometry x="20" y="290" width="120" height="20" as="geometry"/>
                </mxCell>
                <mxCell id="10" value="S4" style="rounded=0;whiteSpace=wrap;html=1;fontFamily=Helvetica;fontSize=22;fontColor=#292323;fillColor=#E2E2E2;" parent="1" vertex="1">
                    <mxGeometry x="20" y="310" width="120" height="20" as="geometry"/>
                </mxCell>
                <mxCell id="11" value="" style="shape=flexArrow;endArrow=classic;html=1;fontFamily=Helvetica;fontSize=22;fontColor=#141414;fillColor=#6a00ff;strokeColor=#3700CC;" parent="1" edge="1">
                    <mxGeometry width="50" height="50" relative="1" as="geometry">
                        <mxPoint x="140" y="199.5" as="sourcePoint"/>
                        <mxPoint x="190" y="199.5" as="targetPoint"/>
                    </mxGeometry>
                </mxCell>
                <mxCell id="12" value="thermo" style="rounded=0;whiteSpace=wrap;html=1;fontFamily=Helvetica;fontSize=22;fontColor=#ea4d4d;fillColor=#E2E2E2;fontStyle=1" parent="1" vertex="1">
                    <mxGeometry x="190" y="60" width="110" height="40" as="geometry"/>
                </mxCell>
                <mxCell id="14" value="" style="edgeStyle=none;html=1;fontFamily=Helvetica;fontSize=22;fontColor=#141414;" parent="1" source="13" target="2" edge="1">
                    <mxGeometry relative="1" as="geometry"/>
                </mxCell>
                <mxCell id="13" value="Mec" style="rounded=0;whiteSpace=wrap;html=1;fontFamily=Helvetica;fontSize=22;fontColor=#141414;fillColor=#E2E2E2;" parent="1" vertex="1">
                    <mxGeometry x="300" y="60" width="110" height="40" as="geometry"/>
                </mxCell>
                <mxCell id="15" value="analyse" style="rounded=0;whiteSpace=wrap;html=1;fontFamily=Helvetica;fontSize=22;fontColor=#141414;fillColor=#E2E2E2;" parent="1" vertex="1">
                    <mxGeometry x="410" y="60" width="100" height="40" as="geometry"/>
                </mxCell>
                <mxCell id="16" value="algo" style="rounded=0;whiteSpace=wrap;html=1;fontFamily=Helvetica;fontSize=22;fontColor=#141414;fillColor=#E2E2E2;" parent="1" vertex="1">
                    <mxGeometry x="510" y="60" width="100" height="40" as="geometry"/>
                </mxCell>
                <mxCell id="17" value="Algebre" style="rounded=0;whiteSpace=wrap;html=1;fontFamily=Helvetica;fontSize=22;fontColor=#141414;fillColor=#E2E2E2;" parent="1" vertex="1">
                    <mxGeometry x="610" y="60" width="120" height="40" as="geometry"/>
                </mxCell>
                <mxCell id="18" value="Tec" style="rounded=0;whiteSpace=wrap;html=1;fontFamily=Helvetica;fontSize=22;fontColor=#141414;fillColor=#E2E2E2;" parent="1" vertex="1">
                    <mxGeometry x="730" y="60" width="110" height="40" as="geometry"/>
                </mxCell>
                <mxCell id="24" style="edgeStyle=none;html=1;exitX=0.75;exitY=0;exitDx=0;exitDy=0;fontFamily=Helvetica;fontSize=22;fontColor=#ea4d4d;" parent="1" source="19" target="3" edge="1">
                    <mxGeometry relative="1" as="geometry"/>
                </mxCell>
                <mxCell id="19" value="S4" style="rounded=0;whiteSpace=wrap;html=1;fontFamily=Helvetica;fontSize=22;fontColor=#292323;fillColor=#E2E2E2;" parent="1" vertex="1">
                    <mxGeometry x="20" y="520" width="120" height="20" as="geometry"/>
                </mxCell>
                <mxCell id="20" value="S2" style="rounded=0;whiteSpace=wrap;html=1;fontFamily=Helvetica;fontSize=22;fontColor=#141414;fillColor=#E2E2E2;" parent="1" vertex="1">
                    <mxGeometry x="20" y="480" width="120" height="20" as="geometry"/>
                </mxCell>
                <mxCell id="21" value="S3" style="rounded=0;whiteSpace=wrap;html=1;fontFamily=Helvetica;fontSize=22;fontColor=#191414;fillColor=#E2E2E2;" parent="1" vertex="1">
                    <mxGeometry x="20" y="500" width="120" height="20" as="geometry"/>
                </mxCell>
                <mxCell id="22" value="S1" style="rounded=0;whiteSpace=wrap;html=1;fontFamily=Helvetica;fontSize=22;fontColor=#FFFFFF;fillColor=#E2E2E2;" parent="1" vertex="1">
                    <mxGeometry x="20" y="410" width="120" height="20" as="geometry"/>
                </mxCell>
                <mxCell id="23" style="edgeStyle=none;html=1;exitX=0.75;exitY=1;exitDx=0;exitDy=0;fontFamily=Helvetica;fontSize=22;fontColor=#ea4d4d;" parent="1" source="22" target="22" edge="1">
                    <mxGeometry relative="1" as="geometry"/>
                </mxCell>
                <mxCell id="25" value="" style="whiteSpace=wrap;html=1;aspect=fixed;fontFamily=Helvetica;fontSize=22;fillColor=#ffff88;strokeColor=#36393d;" parent="1" vertex="1">
                    <mxGeometry x="185" y="100" width="660" height="660" as="geometry"/>
                </mxCell>
                <mxCell id="27" value="LEARNING" style="rounded=0;whiteSpace=wrap;html=1;fontFamily=Helvetica;fontSize=40;fontColor=#ea4d4d;fillColor=#e3e3e3;" parent="1" vertex="1">
                    <mxGeometry y="-70" width="250" height="70" as="geometry"/>
                </mxCell>
                <mxCell id="54" value="" style="rounded=0;whiteSpace=wrap;html=1;fillColor=#f5f5f5;strokeColor=#666666;fontColor=#333333;" vertex="1" parent="1">
                    <mxGeometry x="45" y="-1700" width="880" height="1260" as="geometry"/>
                </mxCell>
                <mxCell id="56" value="COUR_DATA" style="rounded=1;whiteSpace=wrap;html=1;fillColor=#f5f5f5;strokeColor=#666666;fontColor=#333333;" vertex="1" parent="1">
                    <mxGeometry x="410" y="-1670" width="120" height="60" as="geometry"/>
                </mxCell>
                <mxCell id="61" value="" style="edgeStyle=entityRelationEdgeStyle;startArrow=none;endArrow=none;segment=10;curved=1;sourcePerimeterSpacing=0;targetPerimeterSpacing=0;" edge="1" parent="1" source="56">
                    <mxGeometry relative="1" as="geometry">
                        <mxPoint x="385" y="-1620" as="sourcePoint"/>
                        <mxPoint x="570" y="-1445" as="targetPoint"/>
                    </mxGeometry>
                </mxCell>
                <mxCell id="124" value="" style="edgeStyle=none;html=1;fontColor=#0000FF;" edge="1" parent="1" source="62">
                    <mxGeometry relative="1" as="geometry">
                        <mxPoint x="148.0645161290323" y="-1420" as="targetPoint"/>
                    </mxGeometry>
                </mxCell>
                <mxCell id="62" value="GEGM_DATA" style="rounded=1;whiteSpace=wrap;html=1;fillColor=#f9f7ed;strokeColor=#36393d;fontColor=#000000;" vertex="1" parent="1">
                    <mxGeometry x="70" y="-1590" width="120" height="60" as="geometry"/>
                </mxCell>
                <mxCell id="66" value="" style="edgeStyle=none;html=1;" edge="1" parent="1" source="63" target="65">
                    <mxGeometry relative="1" as="geometry"/>
                </mxCell>
                <mxCell id="63" value="MIP_DATA" style="whiteSpace=wrap;html=1;rounded=1;fillColor=#f9f7ed;strokeColor=#36393D;fontColor=#000000;" vertex="1" parent="1">
                    <mxGeometry x="410" y="-1580" width="120" height="60" as="geometry"/>
                </mxCell>
                <mxCell id="65" value="BCG_DATA" style="whiteSpace=wrap;html=1;rounded=1;fillColor=#f9f7ed;strokeColor=#36393d;fontColor=#000000;" vertex="1" parent="1">
                    <mxGeometry x="770" y="-1580" width="120" height="60" as="geometry"/>
                </mxCell>
                <mxCell id="67" value="" style="endArrow=none;dashed=1;html=1;dashPattern=1 3;strokeWidth=2;fontColor=#000000;exitX=0;exitY=0.5;exitDx=0;exitDy=0;" edge="1" parent="1" source="56" target="62">
                    <mxGeometry width="50" height="50" relative="1" as="geometry">
                        <mxPoint x="440" y="-1350" as="sourcePoint"/>
                        <mxPoint x="490" y="-1400" as="targetPoint"/>
                        <Array as="points"/>
                    </mxGeometry>
                </mxCell>
                <mxCell id="69" value="" style="curved=1;endArrow=classic;html=1;fontColor=#000000;exitX=0.587;exitY=-0.02;exitDx=0;exitDy=0;exitPerimeter=0;" edge="1" parent="1" source="62" target="56">
                    <mxGeometry width="50" height="50" relative="1" as="geometry">
                        <mxPoint x="270" y="-1590" as="sourcePoint"/>
                        <mxPoint x="320" y="-1640" as="targetPoint"/>
                        <Array as="points">
                            <mxPoint x="320" y="-1590"/>
                            <mxPoint x="270" y="-1640"/>
                        </Array>
                    </mxGeometry>
                </mxCell>
                <mxCell id="71" value="" style="curved=1;endArrow=classic;html=1;fontColor=#0000FF;exitX=0;exitY=0.5;exitDx=0;exitDy=0;entryX=0.42;entryY=-0.073;entryDx=0;entryDy=0;spacing=6;fillColor=#1ba1e2;strokeColor=#006EAF;entryPerimeter=0;" edge="1" parent="1" source="56" target="62">
                    <mxGeometry width="50" height="50" relative="1" as="geometry">
                        <mxPoint x="270" y="-1590" as="sourcePoint"/>
                        <mxPoint x="320" y="-1640" as="targetPoint"/>
                        <Array as="points">
                            <mxPoint x="320" y="-1590"/>
                            <mxPoint x="270" y="-1640"/>
                        </Array>
                    </mxGeometry>
                </mxCell>
                <mxCell id="72" value="" style="curved=1;endArrow=classic;html=1;fontColor=#0000FF;entryX=0.75;entryY=1;entryDx=0;entryDy=0;exitX=0.25;exitY=0;exitDx=0;exitDy=0;" edge="1" parent="1" source="63" target="56">
                    <mxGeometry width="50" height="50" relative="1" as="geometry">
                        <mxPoint x="460" y="-1540" as="sourcePoint"/>
                        <mxPoint x="510" y="-1590" as="targetPoint"/>
                        <Array as="points">
                            <mxPoint x="510" y="-1540"/>
                            <mxPoint x="460" y="-1590"/>
                        </Array>
                    </mxGeometry>
                </mxCell>
                <mxCell id="73" value="" style="endArrow=classic;html=1;fontColor=#0000FF;entryX=0.75;entryY=1;entryDx=0;entryDy=0;exitX=0.5;exitY=0;exitDx=0;exitDy=0;" edge="1" parent="1" source="63" target="56">
                    <mxGeometry width="50" height="50" relative="1" as="geometry">
                        <mxPoint x="470" y="-1550" as="sourcePoint"/>
                        <mxPoint x="520" y="-1600" as="targetPoint"/>
                    </mxGeometry>
                </mxCell>
                <mxCell id="74" value="" style="endArrow=classic;html=1;fontColor=#0000FF;fillColor=#1ba1e2;strokeColor=#006EAF;" edge="1" parent="1" target="56">
                    <mxGeometry width="50" height="50" relative="1" as="geometry">
                        <mxPoint x="460" y="-1580" as="sourcePoint"/>
                        <mxPoint x="500" y="-1600" as="targetPoint"/>
                    </mxGeometry>
                </mxCell>
                <mxCell id="76" value="" style="curved=1;endArrow=classic;html=1;fontColor=#0000FF;exitX=1;exitY=0.5;exitDx=0;exitDy=0;" edge="1" parent="1" source="56" target="65">
                    <mxGeometry width="50" height="50" relative="1" as="geometry">
                        <mxPoint x="660" y="-1600" as="sourcePoint"/>
                        <mxPoint x="710" y="-1650" as="targetPoint"/>
                        <Array as="points">
                            <mxPoint x="660" y="-1650"/>
                        </Array>
                    </mxGeometry>
                </mxCell>
                <mxCell id="77" value="" style="curved=1;endArrow=classic;html=1;fontColor=#0000FF;fillColor=#1ba1e2;strokeColor=#006EAF;exitX=1;exitY=0.75;exitDx=0;exitDy=0;" edge="1" parent="1" source="56" target="65">
                    <mxGeometry width="50" height="50" relative="1" as="geometry">
                        <mxPoint x="650" y="-1590" as="sourcePoint"/>
                        <mxPoint x="700" y="-1640" as="targetPoint"/>
                        <Array as="points">
                            <mxPoint x="650" y="-1640"/>
                        </Array>
                    </mxGeometry>
                </mxCell>
                <mxCell id="99" value="" style="edgeStyle=none;html=1;fontColor=#0000FF;" edge="1" parent="1">
                    <mxGeometry relative="1" as="geometry">
                        <mxPoint x="260" y="-1335" as="sourcePoint"/>
                        <mxPoint x="370" y="-1335" as="targetPoint"/>
                    </mxGeometry>
                </mxCell>
                <mxCell id="101" value="" style="edgeStyle=none;html=1;fontColor=#0000FF;" edge="1" parent="1">
                    <mxGeometry relative="1" as="geometry">
                        <mxPoint x="590" y="-1335" as="sourcePoint"/>
                        <mxPoint x="680" y="-1335" as="targetPoint"/>
                    </mxGeometry>
                </mxCell>
                <mxCell id="105" value="" style="edgeStyle=none;html=1;fontColor=#0000FF;" edge="1" parent="1">
                    <mxGeometry relative="1" as="geometry">
                        <mxPoint x="300" y="-955.344827586207" as="sourcePoint"/>
                        <mxPoint x="410" y="-1004.655172413793" as="targetPoint"/>
                    </mxGeometry>
                </mxCell>
                <mxCell id="107" value="" style="edgeStyle=none;html=1;fontColor=#0000FF;" edge="1" parent="1">
                    <mxGeometry relative="1" as="geometry">
                        <mxPoint x="590" y="-1048" as="sourcePoint"/>
                        <mxPoint x="710" y="-1052" as="targetPoint"/>
                    </mxGeometry>
                </mxCell>
                <mxCell id="110" value="" style="edgeStyle=none;html=1;fontColor=#0000FF;startArrow=none;" edge="1" parent="1">
                    <mxGeometry relative="1" as="geometry">
                        <mxPoint x="185" y="-1410.2351485148515" as="sourcePoint"/>
                        <mxPoint x="290" y="-1425.9405940594058" as="targetPoint"/>
                    </mxGeometry>
                </mxCell>
                <mxCell id="111" value="" style="edgeStyle=none;html=1;fontColor=#0000FF;startArrow=none;" edge="1" parent="1">
                    <mxGeometry relative="1" as="geometry">
                        <mxPoint x="185" y="-1410.2351485148515" as="sourcePoint"/>
                        <mxPoint x="290" y="-1425.9405940594058" as="targetPoint"/>
                    </mxGeometry>
                </mxCell>
                <mxCell id="113" value="" style="edgeStyle=none;html=1;fontColor=#0000FF;" edge="1" parent="1">
                    <mxGeometry relative="1" as="geometry">
                        <mxPoint x="410" y="-1420" as="sourcePoint"/>
                        <mxPoint x="185" y="-1407.0192307692307" as="targetPoint"/>
                    </mxGeometry>
                </mxCell>
                <mxCell id="115" value="" style="edgeStyle=none;html=1;fontColor=#0000FF;" edge="1" parent="1">
                    <mxGeometry relative="1" as="geometry">
                        <mxPoint x="185" y="-1405.0086462450593" as="sourcePoint"/>
                        <mxPoint x="380" y="-1405.0568181818182" as="targetPoint"/>
                    </mxGeometry>
                </mxCell>
                <mxCell id="116" value="" style="edgeStyle=none;html=1;fontColor=#0000FF;endArrow=none;" edge="1" parent="1">
                    <mxGeometry relative="1" as="geometry">
                        <mxPoint x="97.5" y="-1450" as="sourcePoint"/>
                        <mxPoint x="132.5" y="-1420" as="targetPoint"/>
                    </mxGeometry>
                </mxCell>
                <mxCell id="118" value="" style="edgeStyle=none;html=1;fontColor=#0000FF;" edge="1" parent="1">
                    <mxGeometry relative="1" as="geometry">
                        <mxPoint x="164.25" y="-1420" as="sourcePoint"/>
                        <mxPoint x="230.75" y="-1490" as="targetPoint"/>
                    </mxGeometry>
                </mxCell>
                <mxCell id="119" value="" style="edgeStyle=none;html=1;fontColor=#0000FF;" edge="1" parent="1">
                    <mxGeometry relative="1" as="geometry">
                        <mxPoint x="267.2714681440443" y="-1490" as="sourcePoint"/>
                        <mxPoint x="386.0526315789473" y="-1410" as="targetPoint"/>
                    </mxGeometry>
                </mxCell>
                <mxCell id="121" value="" style="edgeStyle=none;html=1;fontColor=#0000FF;" edge="1" parent="1">
                    <mxGeometry relative="1" as="geometry">
                        <mxPoint x="247.5" y="-1490" as="sourcePoint"/>
                        <mxPoint x="252.5" y="-1460" as="targetPoint"/>
                    </mxGeometry>
                </mxCell>
                <mxCell id="122" value="" style="edgeStyle=none;html=1;fontColor=#0000FF;endArrow=none;" edge="1" parent="1">
                    <mxGeometry relative="1" as="geometry">
                        <mxPoint x="97.5" y="-1450" as="sourcePoint"/>
                        <mxPoint x="132.5" y="-1420" as="targetPoint"/>
                    </mxGeometry>
                </mxCell>
                <mxCell id="127" style="edgeStyle=none;html=1;fontColor=#0000FF;fillColor=#1ba1e2;strokeColor=#006EAF;" edge="1" parent="1" source="62">
                    <mxGeometry relative="1" as="geometry">
                        <mxPoint x="170" y="-1520" as="sourcePoint"/>
                        <mxPoint x="160" y="-1470" as="targetPoint"/>
                        <Array as="points"/>
                    </mxGeometry>
                </mxCell>
                <mxCell id="131" value="" style="edgeStyle=none;html=1;fontColor=#000000;" edge="1" parent="1" source="128" target="130">
                    <mxGeometry relative="1" as="geometry"/>
                </mxCell>
                <mxCell id="132" value="" style="edgeStyle=none;html=1;fontColor=#000000;fillColor=#1ba1e2;strokeColor=#006EAF;" edge="1" parent="1" source="130" target="128">
                    <mxGeometry relative="1" as="geometry">
                        <mxPoint x="160" y="-1360" as="targetPoint"/>
                    </mxGeometry>
                </mxCell>
                <mxCell id="128" value="Modules" style="rounded=1;whiteSpace=wrap;html=1;strokeColor=#36393d;fillColor=#f9f7ed;fontColor=#000000;" vertex="1" parent="1">
                    <mxGeometry x="125" y="-1370" width="90" height="50" as="geometry"/>
                </mxCell>
                <mxCell id="129" value="Videos" style="rounded=1;whiteSpace=wrap;html=1;strokeColor=#36393d;fillColor=#eeeeee;fontColor=#000000;arcSize=50;" vertex="1" parent="1">
                    <mxGeometry x="150" y="-1280" width="90" height="40" as="geometry"/>
                </mxCell>
                <mxCell id="130" value="Semestre" style="rounded=1;whiteSpace=wrap;html=1;strokeColor=#36393d;fillColor=#eeeeee;fontColor=#000000;arcSize=50;" vertex="1" parent="1">
                    <mxGeometry x="110" y="-1470" width="120" height="60" as="geometry"/>
                </mxCell>
                <mxCell id="133" value="" style="edgeStyle=none;html=1;fontColor=#000000;fillColor=#1ba1e2;strokeColor=#006EAF;" edge="1" parent="1" target="129">
                    <mxGeometry relative="1" as="geometry">
                        <mxPoint x="170" y="-1320" as="sourcePoint"/>
                        <mxPoint x="180" y="-1360" as="targetPoint"/>
                        <Array as="points">
                            <mxPoint x="180" y="-1280"/>
                        </Array>
                    </mxGeometry>
                </mxCell>
            </root>
        </mxGraphModel>
    </diagram>
</mxfile>